<svg width="255" height="255" version="1.1" xmlns="http://www.w3.org/2000/svg" style="background-color: #112">
  <desc>A bacground image consisting of stars</desc>
  <defs>
    <radialGradient id="star1">
      <stop offset="0%" stop-color="white"/>
      <stop offset="15%" stop-color="#FFFFFFFF"/>
      <stop offset="25%" stop-color="#FFFFFF44"/>
      <stop offset="100%" stop-color="transparent"/>
    </radialGradient>
    <filter id="im_a_mfking_star_blur">
      <feGaussianBlur in="SourceGraphic" stdDeviation="0.3" />
    </filter>
  </defs>
  <g fill="url(#star1)">
<circle cx="52" cy="202" r="0.436"/><circle cx="46" cy="34" r="0.709"/><circle cx="148" cy="30" r="0.126"/><circle cx="184" cy="141" r="0.422"/><circle cx="54" cy="134" r="1.160"/><circle cx="13" cy="133" r="0.414"/><circle cx="99" cy="84" r="1.201"/><circle cx="190" cy="44" r="0.514"/><circle cx="172" cy="198" r="1.295"/><circle cx="91" cy="126" r="0.743"/><circle cx="45" cy="153" r="0.702"/><circle cx="149" cy="159" r="0.076"/><circle cx="99" cy="211" r="1.303"/><circle cx="147" cy="220" r="0.642"/><circle cx="119" cy="156" r="0.675"/><circle cx="22" cy="41" r="0.461"/><circle cx="143" cy="241" r="0.193"/><circle cx="74" cy="100" r="1.022"/><circle cx="103" cy="225" r="0.231"/><circle cx="182" cy="223" r="0.478"/><circle cx="164" cy="101" r="1.100"/><circle cx="51" cy="31" r="1.447"/><circle cx="142" cy="121" r="1.034"/><circle cx="90" cy="148" r="0.313"/><circle cx="21" cy="182" r="0.684"/><circle cx="146" cy="167" r="1.016"/><circle cx="147" cy="164" r="0.121"/><circle cx="210" cy="39" r="1.670"/><circle cx="98" cy="227" r="0.496"/><circle cx="128" cy="195" r="0.495"/><circle cx="81" cy="169" r="0.867"/><circle cx="186" cy="22" r="0.831"/><circle cx="186" cy="185" r="0.679"/><circle cx="49" cy="224" r="1.905"/><circle cx="217" cy="106" r="1.758"/><circle cx="31" cy="28" r="0.301"/><circle cx="76" cy="20" r="1.083"/><circle cx="127" cy="164" r="0.795"/><circle cx="62" cy="149" r="1.913"/><circle cx="209" cy="102" r="1.149"/><circle cx="123" cy="224" r="0.707"/><circle cx="18" cy="112" r="0.627"/><circle cx="127" cy="219" r="0.639"/><circle cx="255" cy="96" r="1.265"/><circle cx="130" cy="129" r="0.159"/><circle cx="106" cy="118" r="0.443"/><circle cx="133" cy="72" r="0.634"/><circle cx="161" cy="59" r="0.530"/><circle cx="206" cy="20" r="1.826"/><circle cx="47" cy="220" r="0.728"/><circle cx="84" cy="172" r="0.411"/><circle cx="241" cy="161" r="0.499"/><circle cx="110" cy="137" r="1.230"/><circle cx="200" cy="254" r="0.545"/><circle cx="143" cy="97" r="0.244"/><circle cx="65" cy="137" r="0.189"/><circle cx="30" cy="85" r="0.968"/><circle cx="237" cy="241" r="1.001"/><circle cx="199" cy="111" r="1.099"/><circle cx="108" cy="80" r="1.196"/><circle cx="131" cy="59" r="0.102"/><circle cx="195" cy="113" r="0.609"/><circle cx="103" cy="82" r="0.801"/><circle cx="169" cy="241" r="0.975"/><circle cx="225" cy="13" r="1.479"/><circle cx="57" cy="250" r="0.251"/><circle cx="131" cy="71" r="0.814"/><circle cx="40" cy="5" r="0.182"/><circle cx="177" cy="38" r="0.500"/><circle cx="232" cy="195" r="0.261"/><circle cx="159" cy="198" r="0.405"/><circle cx="249" cy="204" r="0.434"/><circle cx="58" cy="187" r="0.276"/><circle cx="222" cy="212" r="0.751"/><circle cx="227" cy="34" r="1.326"/><circle cx="100" cy="154" r="0.910"/><circle cx="245" cy="216" r="1.526"/><circle cx="85" cy="190" r="0.307"/><circle cx="90" cy="76" r="1.366"/><circle cx="173" cy="132" r="0.532"/><circle cx="2" cy="86" r="0.789"/><circle cx="159" cy="61" r="0.067"/><circle cx="249" cy="247" r="0.793"/><circle cx="125" cy="210" r="0.769"/><circle cx="182" cy="117" r="1.302"/><circle cx="0" cy="27" r="1.136"/><circle cx="160" cy="239" r="0.882"/><circle cx="156" cy="225" r="1.166"/><circle cx="226" cy="200" r="0.887"/><circle cx="185" cy="174" r="0.335"/><circle cx="42" cy="73" r="0.327"/><circle cx="90" cy="146" r="0.981"/><circle cx="190" cy="101" r="1.440"/><circle cx="179" cy="47" r="0.835"/><circle cx="91" cy="168" r="0.248"/><circle cx="167" cy="89" r="0.948"/><circle cx="11" cy="10" r="0.504"/><circle cx="45" cy="183" r="0.766"/><circle cx="50" cy="81" r="1.215"/><circle cx="253" cy="39" r="0.382"/><circle cx="59" cy="88" r="1.124"/><circle cx="113" cy="155" r="0.944"/><circle cx="207" cy="121" r="1.314"/><circle cx="113" cy="158" r="1.426"/><circle cx="167" cy="231" r="0.577"/><circle cx="204" cy="205" r="1.432"/><circle cx="160" cy="145" r="1.688"/><circle cx="6" cy="128" r="0.659"/><circle cx="234" cy="186" r="0.384"/><circle cx="198" cy="14" r="0.619"/><circle cx="34" cy="234" r="0.353"/><circle cx="177" cy="159" r="1.710"/><circle cx="132" cy="247" r="1.464"/><circle cx="244" cy="33" r="0.422"/><circle cx="122" cy="35" r="0.345"/><circle cx="24" cy="83" r="0.502"/><circle cx="134" cy="9" r="0.612"/><circle cx="80" cy="49" r="0.766"/><circle cx="162" cy="41" r="0.405"/><circle cx="31" cy="147" r="0.312"/><circle cx="88" cy="76" r="0.882"/><circle cx="66" cy="41" r="0.950"/><circle cx="1" cy="79" r="0.813"/><circle cx="78" cy="110" r="0.738"/><circle cx="247" cy="34" r="1.294"/><circle cx="83" cy="131" r="0.587"/><circle cx="155" cy="205" r="0.754"/><circle cx="198" cy="31" r="0.534"/><circle cx="14" cy="142" r="0.641"/><circle cx="9" cy="155" r="1.372"/><circle cx="78" cy="43" r="1.643"/><circle cx="7" cy="118" r="0.354"/><circle cx="4" cy="244" r="0.432"/><circle cx="94" cy="231" r="1.466"/><circle cx="194" cy="172" r="1.893"/><circle cx="96" cy="54" r="1.301"/><circle cx="182" cy="156" r="0.704"/><circle cx="211" cy="19" r="1.528"/><circle cx="108" cy="130" r="1.243"/><circle cx="157" cy="244" r="0.839"/><circle cx="173" cy="42" r="0.905"/><circle cx="161" cy="53" r="1.411"/><circle cx="19" cy="165" r="0.954"/><circle cx="180" cy="41" r="0.770"/><circle cx="22" cy="255" r="0.376"/><circle cx="127" cy="19" r="0.760"/><circle cx="36" cy="172" r="0.401"/><circle cx="70" cy="157" r="1.164"/><circle cx="0" cy="36" r="0.306"/><circle cx="140" cy="9" r="1.293"/><circle cx="17" cy="5" r="1.408"/><circle cx="74" cy="109" r="0.708"/><circle cx="176" cy="152" r="0.569"/><circle cx="206" cy="17" r="1.326"/><circle cx="252" cy="32" r="0.372"/><circle cx="152" cy="144" r="1.113"/><circle cx="223" cy="164" r="1.178"/><circle cx="9" cy="245" r="0.374"/><circle cx="141" cy="169" r="1.399"/><circle cx="208" cy="209" r="1.116"/><circle cx="107" cy="131" r="0.526"/><circle cx="44" cy="15" r="0.482"/><circle cx="147" cy="67" r="0.618"/><circle cx="160" cy="44" r="0.887"/><circle cx="84" cy="47" r="1.545"/><circle cx="129" cy="110" r="1.022"/><circle cx="255" cy="58" r="1.408"/><circle cx="4" cy="233" r="0.935"/><circle cx="104" cy="85" r="0.827"/><circle cx="48" cy="58" r="0.274"/><circle cx="161" cy="151" r="1.195"/><circle cx="77" cy="38" r="1.353"/><circle cx="91" cy="13" r="0.960"/><circle cx="92" cy="105" r="1.116"/><circle cx="166" cy="168" r="0.464"/><circle cx="186" cy="83" r="1.081"/><circle cx="110" cy="25" r="0.371"/><circle cx="82" cy="29" r="1.625"/><circle cx="134" cy="252" r="0.977"/><circle cx="102" cy="70" r="0.289"/><circle cx="253" cy="165" r="0.605"/><circle cx="207" cy="18" r="0.571"/><circle cx="19" cy="92" r="1.121"/><circle cx="112" cy="151" r="0.350"/><circle cx="99" cy="176" r="0.439"/><circle cx="57" cy="114" r="0.596"/><circle cx="178" cy="94" r="0.391"/><circle cx="108" cy="10" r="1.757"/><circle cx="97" cy="151" r="0.147"/><circle cx="164" cy="254" r="1.253"/><circle cx="156" cy="201" r="1.566"/><circle cx="192" cy="237" r="0.362"/><circle cx="2" cy="228" r="0.558"/><circle cx="229" cy="15" r="1.017"/><circle cx="214" cy="108" r="1.094"/><circle cx="151" cy="27" r="0.303"/><circle cx="246" cy="82" r="1.419"/><circle cx="31" cy="92" r="1.710"/><circle cx="123" cy="170" r="1.273"/><circle cx="11" cy="195" r="0.868"/><circle cx="70" cy="21" r="0.658"/><circle cx="146" cy="119" r="0.327"/><circle cx="160" cy="190" r="0.656"/><circle cx="176" cy="176" r="0.369"/><circle cx="171" cy="16" r="0.459"/><circle cx="187" cy="100" r="0.792"/><circle cx="61" cy="37" r="0.728"/><circle cx="100" cy="81" r="1.388"/><circle cx="71" cy="26" r="0.339"/><circle cx="177" cy="41" r="0.785"/><circle cx="24" cy="76" r="1.035"/><circle cx="134" cy="29" r="0.792"/><circle cx="143" cy="107" r="0.498"/><circle cx="144" cy="31" r="0.931"/><circle cx="147" cy="213" r="1.401"/><circle cx="177" cy="184" r="0.190"/><circle cx="221" cy="40" r="0.240"/><circle cx="16" cy="145" r="1.202"/><circle cx="100" cy="88" r="0.399"/><circle cx="41" cy="47" r="0.402"/><circle cx="1" cy="149" r="0.092"/><circle cx="217" cy="33" r="0.760"/><circle cx="173" cy="86" r="0.272"/><circle cx="31" cy="31" r="0.912"/><circle cx="223" cy="69" r="0.227"/><circle cx="166" cy="173" r="1.411"/><circle cx="68" cy="60" r="0.965"/><circle cx="36" cy="2" r="0.841"/><circle cx="139" cy="217" r="0.354"/><circle cx="183" cy="78" r="1.150"/><circle cx="233" cy="126" r="0.767"/><circle cx="231" cy="87" r="1.785"/><circle cx="13" cy="99" r="1.751"/><circle cx="231" cy="170" r="0.463"/><circle cx="82" cy="161" r="0.360"/><circle cx="161" cy="107" r="1.632"/><circle cx="149" cy="137" r="0.778"/><circle cx="84" cy="161" r="0.578"/><circle cx="119" cy="168" r="0.279"/><circle cx="99" cy="90" r="0.923"/><circle cx="158" cy="16" r="0.663"/><circle cx="23" cy="1" r="0.762"/><circle cx="91" cy="114" r="1.371"/><circle cx="190" cy="201" r="1.486"/><circle cx="226" cy="221" r="0.599"/><circle cx="45" cy="175" r="0.493"/><circle cx="49" cy="94" r="1.182"/><circle cx="2" cy="200" r="0.211"/><circle cx="222" cy="22" r="1.856"/><circle cx="191" cy="175" r="0.810"/><circle cx="67" cy="0" r="0.746"/><circle cx="49" cy="193" r="0.554"/><circle cx="250" cy="180" r="0.831"/><circle cx="221" cy="46" r="1.550"/><circle cx="44" cy="229" r="0.606"/><circle cx="107" cy="13" r="0.600"/><circle cx="51" cy="64" r="0.271"/><circle cx="224" cy="178" r="0.319"/><circle cx="208" cy="162" r="1.120"/><circle cx="158" cy="202" r="0.616"/><circle cx="52" cy="174" r="1.425"/><circle cx="39" cy="249" r="1.383"/><circle cx="188" cy="116" r="0.655"/><circle cx="83" cy="219" r="0.835"/><circle cx="171" cy="18" r="0.487"/><circle cx="121" cy="94" r="0.761"/><circle cx="118" cy="181" r="1.152"/><circle cx="225" cy="213" r="1.506"/><circle cx="63" cy="253" r="0.776"/><circle cx="6" cy="220" r="1.344"/><circle cx="240" cy="143" r="1.130"/><circle cx="170" cy="184" r="0.397"/><circle cx="247" cy="69" r="0.350"/><circle cx="197" cy="244" r="1.690"/><circle cx="16" cy="222" r="0.555"/><circle cx="95" cy="90" r="0.455"/><circle cx="235" cy="156" r="1.298"/><circle cx="1" cy="119" r="0.326"/><circle cx="79" cy="161" r="1.145"/><circle cx="230" cy="118" r="1.235"/><circle cx="28" cy="32" r="0.476"/><circle cx="56" cy="124" r="0.169"/><circle cx="32" cy="83" r="0.425"/><circle cx="2" cy="99" r="0.373"/><circle cx="97" cy="112" r="0.752"/><circle cx="247" cy="167" r="1.621"/><circle cx="207" cy="67" r="0.557"/><circle cx="173" cy="60" r="1.033"/><circle cx="135" cy="49" r="0.892"/><circle cx="172" cy="28" r="0.215"/><circle cx="196" cy="35" r="1.373"/><circle cx="127" cy="25" r="0.407"/><circle cx="198" cy="187" r="0.722"/><circle cx="43" cy="75" r="0.237"/><circle cx="228" cy="219" r="1.063"/><circle cx="192" cy="55" r="0.751"/><circle cx="17" cy="86" r="0.370"/><circle cx="241" cy="225" r="0.913"/><circle cx="221" cy="126" r="0.576"/><circle cx="128" cy="138" r="1.320"/><circle cx="136" cy="203" r="0.828"/><circle cx="170" cy="146" r="1.003"/><circle cx="61" cy="80" r="1.172"/><circle cx="96" cy="82" r="0.752"/><circle cx="199" cy="66" r="1.007"/><circle cx="96" cy="36" r="0.943"/><circle cx="36" cy="156" r="0.788"/><circle cx="235" cy="48" r="0.158"/><circle cx="3" cy="142" r="0.937"/><circle cx="100" cy="96" r="0.466"/><circle cx="130" cy="204" r="0.305"/><circle cx="139" cy="3" r="0.471"/><circle cx="185" cy="83" r="0.286"/><circle cx="175" cy="97" r="1.081"/><circle cx="251" cy="125" r="1.306"/><circle cx="86" cy="170" r="0.363"/><circle cx="107" cy="96" r="1.075"/><circle cx="238" cy="165" r="1.068"/><circle cx="87" cy="186" r="0.320"/><circle cx="220" cy="230" r="0.838"/><circle cx="39" cy="235" r="0.574"/><circle cx="133" cy="78" r="0.716"/><circle cx="130" cy="224" r="0.299"/><circle cx="250" cy="234" r="1.441"/><circle cx="191" cy="50" r="0.262"/><circle cx="4" cy="81" r="0.871"/><circle cx="90" cy="196" r="0.595"/><circle cx="16" cy="163" r="0.712"/><circle cx="124" cy="204" r="0.420"/><circle cx="97" cy="240" r="0.777"/><circle cx="234" cy="154" r="1.045"/><circle cx="170" cy="223" r="0.600"/><circle cx="18" cy="28" r="0.407"/><circle cx="97" cy="17" r="1.158"/><circle cx="170" cy="131" r="0.775"/><circle cx="29" cy="64" r="1.123"/><circle cx="205" cy="214" r="0.585"/><circle cx="127" cy="178" r="1.202"/><circle cx="203" cy="13" r="0.659"/><circle cx="65" cy="70" r="0.601"/><circle cx="128" cy="86" r="0.699"/><circle cx="227" cy="185" r="1.051"/><circle cx="52" cy="92" r="0.577"/><circle cx="78" cy="32" r="0.344"/><circle cx="19" cy="143" r="0.726"/><circle cx="102" cy="1" r="0.904"/><circle cx="138" cy="255" r="0.651"/><circle cx="14" cy="55" r="0.365"/><circle cx="208" cy="140" r="0.330"/><circle cx="37" cy="166" r="0.808"/><circle cx="224" cy="87" r="0.460"/><circle cx="174" cy="129" r="1.390"/><circle cx="198" cy="175" r="0.457"/><circle cx="90" cy="218" r="0.219"/><circle cx="51" cy="121" r="1.323"/><circle cx="50" cy="253" r="0.833"/><circle cx="141" cy="209" r="1.332"/><circle cx="63" cy="199" r="1.429"/><circle cx="239" cy="229" r="0.658"/><circle cx="83" cy="243" r="0.836"/><circle cx="146" cy="179" r="0.754"/><circle cx="36" cy="225" r="1.368"/><circle cx="98" cy="151" r="0.998"/><circle cx="197" cy="133" r="1.897"/><circle cx="171" cy="31" r="0.776"/><circle cx="236" cy="191" r="0.532"/><circle cx="177" cy="72" r="0.797"/><circle cx="188" cy="38" r="0.420"/><circle cx="215" cy="229" r="1.824"/><circle cx="213" cy="87" r="0.491"/><circle cx="205" cy="113" r="0.851"/><circle cx="144" cy="160" r="1.331"/><circle cx="130" cy="225" r="1.104"/><circle cx="103" cy="245" r="1.568"/><circle cx="253" cy="80" r="0.285"/><circle cx="8" cy="76" r="0.224"/><circle cx="168" cy="187" r="0.523"/><circle cx="71" cy="40" r="1.104"/><circle cx="31" cy="239" r="0.861"/><circle cx="177" cy="186" r="0.581"/><circle cx="55" cy="238" r="0.263"/><circle cx="248" cy="95" r="0.972"/><circle cx="163" cy="209" r="0.317"/><circle cx="67" cy="153" r="1.348"/><circle cx="85" cy="88" r="0.691"/><circle cx="224" cy="97" r="0.426"/><circle cx="66" cy="15" r="0.917"/><circle cx="123" cy="171" r="0.514"/><circle cx="116" cy="161" r="0.352"/><circle cx="51" cy="20" r="1.009"/><circle cx="153" cy="87" r="0.551"/><circle cx="147" cy="104" r="0.660"/><circle cx="35" cy="161" r="0.906"/><circle cx="69" cy="70" r="0.271"/><circle cx="36" cy="90" r="0.892"/><circle cx="87" cy="24" r="0.835"/><circle cx="173" cy="161" r="0.993"/><circle cx="239" cy="242" r="0.929"/><circle cx="56" cy="161" r="0.345"/><circle cx="129" cy="158" r="1.760"/><circle cx="2" cy="227" r="0.215"/><circle cx="0" cy="184" r="0.966"/><circle cx="133" cy="30" r="0.230"/><circle cx="226" cy="34" r="1.078"/><circle cx="239" cy="242" r="0.714"/><circle cx="251" cy="165" r="0.807"/><circle cx="108" cy="85" r="0.822"/><circle cx="146" cy="181" r="0.609"/><circle cx="16" cy="139" r="0.723"/><circle cx="214" cy="110" r="0.344"/><circle cx="188" cy="53" r="0.784"/><circle cx="215" cy="134" r="1.374"/><circle cx="228" cy="60" r="1.030"/><circle cx="59" cy="39" r="0.380"/><circle cx="74" cy="206" r="1.069"/><circle cx="117" cy="117" r="0.827"/><circle cx="84" cy="86" r="0.821"/><circle cx="136" cy="64" r="0.365"/><circle cx="135" cy="109" r="1.115"/><circle cx="44" cy="217" r="0.502"/><circle cx="232" cy="146" r="0.606"/><circle cx="201" cy="108" r="0.762"/><circle cx="227" cy="233" r="0.237"/><circle cx="247" cy="140" r="0.909"/><circle cx="182" cy="98" r="0.500"/><circle cx="248" cy="113" r="0.474"/><circle cx="98" cy="249" r="1.073"/><circle cx="73" cy="188" r="0.527"/><circle cx="133" cy="120" r="0.726"/><circle cx="243" cy="12" r="1.611"/><circle cx="121" cy="28" r="0.800"/><circle cx="178" cy="239" r="0.901"/><circle cx="203" cy="13" r="0.960"/><circle cx="158" cy="117" r="1.044"/><circle cx="77" cy="32" r="1.126"/><circle cx="101" cy="83" r="0.387"/><circle cx="59" cy="241" r="1.513"/><circle cx="149" cy="64" r="1.194"/><circle cx="74" cy="107" r="0.159"/><circle cx="195" cy="139" r="0.551"/><circle cx="10" cy="169" r="1.628"/><circle cx="111" cy="203" r="0.590"/><circle cx="218" cy="80" r="0.503"/><circle cx="55" cy="121" r="0.506"/><circle cx="202" cy="200" r="0.277"/><circle cx="139" cy="99" r="1.116"/><circle cx="34" cy="131" r="0.385"/><circle cx="15" cy="144" r="0.826"/><circle cx="232" cy="184" r="0.682"/><circle cx="114" cy="200" r="0.752"/><circle cx="148" cy="222" r="1.075"/><circle cx="34" cy="223" r="0.717"/><circle cx="13" cy="65" r="0.613"/><circle cx="252" cy="180" r="0.122"/><circle cx="66" cy="215" r="0.533"/><circle cx="185" cy="246" r="0.420"/><circle cx="107" cy="118" r="0.795"/><circle cx="73" cy="178" r="0.597"/><circle cx="125" cy="136" r="0.400"/><circle cx="137" cy="215" r="0.274"/><circle cx="95" cy="52" r="1.090"/><circle cx="5" cy="53" r="1.243"/><circle cx="48" cy="216" r="0.306"/><circle cx="66" cy="106" r="0.257"/><circle cx="222" cy="51" r="1.314"/><circle cx="66" cy="189" r="1.004"/><circle cx="80" cy="235" r="0.964"/><circle cx="255" cy="147" r="0.150"/><circle cx="112" cy="250" r="1.687"/><circle cx="199" cy="240" r="0.378"/><circle cx="114" cy="129" r="0.765"/><circle cx="250" cy="88" r="0.473"/><circle cx="33" cy="175" r="0.302"/><circle cx="81" cy="218" r="0.439"/><circle cx="72" cy="243" r="1.649"/><circle cx="208" cy="151" r="0.666"/><circle cx="66" cy="250" r="0.284"/><circle cx="227" cy="68" r="0.966"/><circle cx="111" cy="49" r="1.015"/><circle cx="194" cy="131" r="0.607"/><circle cx="140" cy="50" r="1.669"/><circle cx="224" cy="1" r="0.214"/><circle cx="172" cy="243" r="0.214"/><circle cx="219" cy="89" r="0.729"/><circle cx="86" cy="214" r="1.709"/><circle cx="178" cy="142" r="1.766"/><circle cx="252" cy="213" r="1.553"/><circle cx="213" cy="83" r="1.131"/><circle cx="51" cy="104" r="0.967"/><circle cx="179" cy="187" r="0.671"/><circle cx="234" cy="4" r="0.198"/><circle cx="185" cy="218" r="0.771"/><circle cx="101" cy="193" r="1.092"/><circle cx="72" cy="1" r="0.772"/><circle cx="70" cy="67" r="1.353"/><circle cx="48" cy="169" r="1.247"/><circle cx="253" cy="31" r="0.494"/><circle cx="245" cy="152" r="0.749"/><circle cx="227" cy="102" r="0.655"/><circle cx="12" cy="89" r="0.309"/><circle cx="108" cy="65" r="0.439"/><circle cx="32" cy="155" r="0.711"/><circle cx="108" cy="27" r="0.457"/><circle cx="110" cy="112" r="0.916"/><circle cx="20" cy="124" r="0.737"/><circle cx="19" cy="90" r="0.526"/><circle cx="175" cy="65" r="1.119"/><circle cx="194" cy="170" r="0.845"/><circle cx="27" cy="249" r="0.988"/><circle cx="133" cy="95" r="1.410"/><circle cx="188" cy="11" r="0.730"/><circle cx="122" cy="90" r="0.410"/><circle cx="175" cy="39" r="1.302"/><circle cx="119" cy="12" r="1.391"/><circle cx="21" cy="77" r="1.158"/><circle cx="148" cy="180" r="1.056"/><circle cx="71" cy="250" r="1.028"/><circle cx="99" cy="165" r="0.172"/><circle cx="28" cy="64" r="0.456"/><circle cx="205" cy="59" r="1.132"/><circle cx="5" cy="84" r="1.234"/><circle cx="106" cy="96" r="0.523"/><circle cx="22" cy="245" r="0.229"/><circle cx="7" cy="161" r="1.312"/><circle cx="143" cy="211" r="1.534"/><circle cx="13" cy="221" r="0.732"/><circle cx="28" cy="148" r="0.586"/><circle cx="65" cy="65" r="0.391"/><circle cx="193" cy="254" r="1.344"/><circle cx="223" cy="236" r="0.246"/><circle cx="72" cy="221" r="1.001"/><circle cx="103" cy="140" r="0.769"/><circle cx="33" cy="237" r="0.251"/><circle cx="64" cy="51" r="0.386"/><circle cx="190" cy="161" r="0.574"/><circle cx="151" cy="135" r="0.760"/><circle cx="128" cy="151" r="1.510"/><circle cx="43" cy="108" r="0.128"/><circle cx="221" cy="126" r="0.835"/><circle cx="73" cy="134" r="1.089"/><circle cx="73" cy="215" r="1.233"/><circle cx="145" cy="66" r="0.378"/><circle cx="76" cy="60" r="0.374"/><circle cx="200" cy="28" r="1.421"/><circle cx="105" cy="43" r="1.309"/><circle cx="6" cy="192" r="0.997"/><circle cx="132" cy="188" r="0.534"/><circle cx="133" cy="24" r="0.817"/><circle cx="161" cy="36" r="0.349"/><circle cx="242" cy="24" r="0.817"/><circle cx="133" cy="47" r="1.023"/><circle cx="245" cy="133" r="1.059"/><circle cx="92" cy="123" r="0.644"/><circle cx="184" cy="240" r="1.423"/><circle cx="247" cy="60" r="1.121"/><circle cx="215" cy="204" r="0.847"/><circle cx="93" cy="217" r="0.614"/><circle cx="247" cy="176" r="1.236"/><circle cx="92" cy="78" r="1.973"/><circle cx="79" cy="135" r="0.372"/><circle cx="2" cy="38" r="1.218"/><circle cx="67" cy="159" r="1.298"/><circle cx="158" cy="71" r="1.176"/><circle cx="165" cy="80" r="0.774"/><circle cx="19" cy="225" r="1.543"/><circle cx="109" cy="166" r="0.741"/><circle cx="66" cy="118" r="0.518"/><circle cx="10" cy="34" r="0.874"/><circle cx="187" cy="164" r="0.870"/><circle cx="5" cy="127" r="0.788"/><circle cx="167" cy="171" r="1.223"/><circle cx="200" cy="40" r="0.901"/><circle cx="92" cy="29" r="0.804"/><circle cx="92" cy="171" r="1.095"/><circle cx="209" cy="3" r="1.726"/><circle cx="128" cy="182" r="1.953"/><circle cx="156" cy="78" r="0.810"/><circle cx="50" cy="69" r="0.910"/><circle cx="114" cy="33" r="0.949"/><circle cx="7" cy="169" r="0.878"/><circle cx="0" cy="138" r="1.136"/><circle cx="119" cy="145" r="0.290"/><circle cx="38" cy="27" r="0.188"/><circle cx="26" cy="78" r="1.094"/><circle cx="241" cy="172" r="1.334"/><circle cx="223" cy="213" r="0.982"/><circle cx="164" cy="22" r="0.997"/><circle cx="158" cy="131" r="0.379"/><circle cx="31" cy="150" r="1.220"/><circle cx="51" cy="231" r="0.500"/><circle cx="119" cy="26" r="0.688"/><circle cx="226" cy="6" r="1.255"/><circle cx="243" cy="102" r="0.417"/><circle cx="184" cy="120" r="0.954"/><circle cx="173" cy="140" r="0.657"/><circle cx="117" cy="193" r="0.367"/><circle cx="231" cy="51" r="1.372"/><circle cx="182" cy="252" r="0.416"/><circle cx="227" cy="209" r="0.713"/><circle cx="163" cy="250" r="1.428"/><circle cx="185" cy="9" r="0.986"/><circle cx="161" cy="25" r="0.668"/><circle cx="175" cy="113" r="0.316"/><circle cx="205" cy="230" r="1.122"/><circle cx="155" cy="96" r="0.684"/><circle cx="111" cy="144" r="0.222"/><circle cx="138" cy="31" r="0.567"/><circle cx="32" cy="58" r="0.242"/><circle cx="176" cy="63" r="0.047"/><circle cx="201" cy="112" r="0.401"/><circle cx="97" cy="156" r="0.420"/><circle cx="123" cy="93" r="1.218"/><circle cx="255" cy="75" r="0.857"/><circle cx="70" cy="189" r="0.780"/><circle cx="137" cy="32" r="0.462"/><circle cx="117" cy="163" r="1.438"/><circle cx="139" cy="196" r="0.662"/><circle cx="38" cy="227" r="0.749"/><circle cx="158" cy="45" r="0.322"/><circle cx="164" cy="27" r="0.818"/><circle cx="253" cy="214" r="0.365"/><circle cx="242" cy="252" r="0.632"/><circle cx="19" cy="225" r="0.587"/><circle cx="156" cy="165" r="1.010"/><circle cx="10" cy="135" r="1.040"/><circle cx="182" cy="23" r="0.506"/><circle cx="27" cy="141" r="0.106"/><circle cx="68" cy="45" r="0.560"/><circle cx="91" cy="30" r="1.236"/><circle cx="218" cy="34" r="0.286"/><circle cx="203" cy="223" r="0.866"/><circle cx="13" cy="49" r="1.105"/><circle cx="100" cy="231" r="0.231"/><circle cx="25" cy="211" r="0.522"/><circle cx="82" cy="250" r="0.975"/><circle cx="75" cy="55" r="0.580"/><circle cx="7" cy="20" r="1.737"/><circle cx="166" cy="174" r="0.254"/><circle cx="80" cy="113" r="0.497"/><circle cx="197" cy="240" r="0.697"/><circle cx="139" cy="18" r="0.088"/><circle cx="94" cy="42" r="0.592"/><circle cx="13" cy="70" r="0.125"/><circle cx="98" cy="155" r="1.510"/><circle cx="167" cy="88" r="0.327"/><circle cx="51" cy="216" r="1.080"/><circle cx="132" cy="148" r="0.177"/><circle cx="84" cy="236" r="1.890"/><circle cx="88" cy="175" r="1.325"/><circle cx="40" cy="75" r="0.504"/><circle cx="53" cy="57" r="1.194"/><circle cx="43" cy="175" r="0.916"/><circle cx="62" cy="194" r="1.214"/><circle cx="39" cy="196" r="0.933"/><circle cx="14" cy="138" r="1.022"/><circle cx="201" cy="58" r="0.421"/><circle cx="229" cy="144" r="0.582"/><circle cx="179" cy="210" r="0.312"/><circle cx="198" cy="113" r="0.818"/><circle cx="94" cy="217" r="1.007"/><circle cx="120" cy="70" r="0.814"/><circle cx="13" cy="20" r="0.386"/><circle cx="54" cy="28" r="0.250"/><circle cx="104" cy="224" r="0.511"/><circle cx="125" cy="121" r="1.750"/><circle cx="213" cy="191" r="0.855"/><circle cx="191" cy="247" r="1.032"/><circle cx="62" cy="0" r="0.575"/><circle cx="223" cy="58" r="0.174"/><circle cx="239" cy="229" r="0.776"/><circle cx="164" cy="195" r="1.304"/><circle cx="156" cy="78" r="1.328"/><circle cx="246" cy="98" r="0.226"/><circle cx="61" cy="19" r="0.650"/><circle cx="55" cy="13" r="0.974"/><circle cx="125" cy="254" r="1.044"/><circle cx="179" cy="183" r="0.801"/><circle cx="90" cy="25" r="1.280"/><circle cx="95" cy="165" r="1.045"/><circle cx="115" cy="21" r="0.307"/><circle cx="220" cy="108" r="0.925"/><circle cx="1" cy="221" r="0.307"/><circle cx="39" cy="220" r="1.022"/><circle cx="140" cy="4" r="1.888"/><circle cx="138" cy="47" r="0.156"/><circle cx="108" cy="56" r="0.317"/><circle cx="75" cy="204" r="0.695"/><circle cx="200" cy="80" r="0.282"/><circle cx="178" cy="109" r="0.336"/><circle cx="79" cy="17" r="1.257"/><circle cx="48" cy="30" r="0.472"/><circle cx="22" cy="128" r="0.267"/><circle cx="167" cy="14" r="1.071"/><circle cx="131" cy="41" r="0.663"/><circle cx="198" cy="185" r="1.088"/><circle cx="170" cy="1" r="0.355"/><circle cx="19" cy="71" r="0.149"/><circle cx="157" cy="188" r="0.827"/><circle cx="191" cy="224" r="0.680"/><circle cx="172" cy="73" r="1.074"/>
  </g>
</svg>
